<svg width="29" height="28" viewBox="0 0 29 28" fill="none" xmlns="http://www.w3.org/2000/svg">
<path d="M8.43857 8.06899C8.06454 7.82391 7.55918 7.92325 7.30982 8.29087C7.06046 8.6585 7.16154 9.15519 7.53557 9.40027L14.0472 13.6669C14.3206 13.8461 14.6768 13.8461 14.9502 13.6669L21.4618 9.40027C21.8359 9.15519 21.9369 8.6585 21.6876 8.29087C21.4382 7.92325 20.9329 7.82391 20.5588 8.06899L14.4987 12.0398L8.43857 8.06899Z" fill="#F36B32"/>
<path fill-rule="evenodd" clip-rule="evenodd" d="M10.5559 3.66797C9.37064 3.66796 8.43133 3.66796 7.67422 3.72876C6.9 3.79093 6.24491 3.92064 5.64673 4.2202C4.67675 4.70596 3.88813 5.48106 3.3939 6.43442C3.08911 7.02234 2.95713 7.6662 2.89388 8.42715C2.83202 9.17128 2.83203 10.0945 2.83203 11.2594V14.7432C2.83203 15.9081 2.83202 16.8313 2.89388 17.5754C2.95713 18.3364 3.08911 18.9803 3.3939 19.5682C3.88813 20.5215 4.67675 21.2966 5.64673 21.7824C6.24491 22.082 6.9 22.2117 7.67422 22.2738C8.43133 22.3346 9.37062 22.3346 10.5559 22.3346H18.4415C19.6268 22.3346 20.5661 22.3346 21.3232 22.2738C22.0974 22.2117 22.7525 22.082 23.3507 21.7824C24.3207 21.2966 25.1093 20.5215 25.6035 19.5682C25.9083 18.9803 26.0403 18.3364 26.1035 17.5754C26.1654 16.8313 26.1654 15.9081 26.1654 14.7432V11.2594C26.1654 10.0945 26.1654 9.17128 26.1035 8.42715C26.0403 7.6662 25.9083 7.02234 25.6035 6.43442C25.1093 5.48106 24.3207 4.70596 23.3507 4.2202C22.7525 3.92064 22.0974 3.79093 21.3232 3.72876C20.5661 3.66796 19.6268 3.66796 18.4415 3.66797H10.5559ZM6.38579 5.64581C6.71622 5.48033 7.13324 5.37753 7.80679 5.32344C8.48984 5.26859 9.36267 5.26797 10.5917 5.26797H18.4057C19.6347 5.26797 20.5076 5.26859 21.1906 5.32344C21.8642 5.37753 22.2812 5.48033 22.6116 5.64581C23.2753 5.97817 23.8149 6.50851 24.153 7.1608C24.3214 7.48557 24.426 7.89544 24.481 8.55744C24.5368 9.22878 24.5375 10.0867 24.5375 11.2946V14.708C24.5375 15.9159 24.5368 16.7738 24.481 17.4452C24.426 18.1072 24.3214 18.517 24.153 18.8418C23.8149 19.4941 23.2753 20.0244 22.6116 20.3568C22.2812 20.5223 21.8642 20.6251 21.1906 20.6792C20.5076 20.734 19.6347 20.7346 18.4057 20.7346H10.5917C9.36267 20.7346 8.48984 20.734 7.80679 20.6792C7.13324 20.6251 6.71622 20.5223 6.38579 20.3568C5.72211 20.0244 5.18253 19.4941 4.84437 18.8418C4.67601 18.517 4.57141 18.1072 4.51638 17.4452C4.46057 16.7738 4.45994 15.9159 4.45994 14.708V11.2946C4.45994 10.0867 4.46057 9.22878 4.51638 8.55744C4.57141 7.89544 4.67601 7.48557 4.84437 7.1608C5.18253 6.50851 5.72211 5.97817 6.38579 5.64581Z" fill="#F36B32"/>
</svg>
