<svg width="147" height="98" viewBox="0 0 147 98" fill="none" xmlns="http://www.w3.org/2000/svg">
<path d="M19.2842 2.54074C19.2842 3.94395 18.1439 5.08148 16.7372 5.08148C15.3305 5.08148 14.1901 3.94395 14.1901 2.54074C14.1901 1.13753 15.3305 0 16.7372 0C18.1439 0 19.2842 1.13753 19.2842 2.54074Z" fill="#E47450"/>
<path d="M47.666 2.54074C47.666 3.94395 46.5257 5.08148 45.119 5.08148C43.7123 5.08148 42.5719 3.94395 42.5719 2.54074C42.5719 1.13753 43.7123 0 45.119 0C46.5257 0 47.666 1.13753 47.666 2.54074Z" fill="#E47450"/>
<path d="M76.0478 2.54074C76.0478 3.94395 74.9075 5.08148 73.5008 5.08148C72.0941 5.08148 70.9537 3.94395 70.9537 2.54074C70.9537 1.13753 72.0941 0 73.5008 0C74.9075 0 76.0478 1.13753 76.0478 2.54074Z" fill="#E47450"/>
<path d="M104.428 2.54074C104.428 3.94395 103.288 5.08148 101.881 5.08148C100.474 5.08148 99.334 3.94395 99.334 2.54074C99.334 1.13753 100.474 0 101.881 0C103.288 0 104.428 1.13753 104.428 2.54074Z" fill="#E47450"/>
<path d="M132.811 2.54074C132.811 3.94395 131.671 5.08148 130.264 5.08148C128.858 5.08148 127.717 3.94395 127.717 2.54074C127.717 1.13753 128.858 0 130.264 0C131.671 0 132.811 1.13753 132.811 2.54074Z" fill="#E47450"/>
<path d="M19.2842 49.0001C19.2842 50.4033 18.1439 51.5408 16.7372 51.5408C15.3305 51.5408 14.1901 50.4033 14.1901 49.0001C14.1901 47.5969 15.3305 46.4594 16.7372 46.4594C18.1439 46.4594 19.2842 47.5969 19.2842 49.0001Z" fill="#E47450"/>
<path d="M47.666 49.0001C47.666 50.4033 46.5257 51.5408 45.119 51.5408C43.7123 51.5408 42.5719 50.4033 42.5719 49.0001C42.5719 47.5969 43.7123 46.4594 45.119 46.4594C46.5257 46.4594 47.666 47.5969 47.666 49.0001Z" fill="#E47450"/>
<path d="M76.0478 49.0001C76.0478 50.4033 74.9075 51.5408 73.5008 51.5408C72.0941 51.5408 70.9537 50.4033 70.9537 49.0001C70.9537 47.5969 72.0941 46.4594 73.5008 46.4594C74.9075 46.4594 76.0478 47.5969 76.0478 49.0001Z" fill="#E47450"/>
<path d="M104.428 49.0001C104.428 50.4033 103.288 51.5408 101.881 51.5408C100.474 51.5408 99.334 50.4033 99.334 49.0001C99.334 47.5969 100.474 46.4594 101.881 46.4594C103.288 46.4594 104.428 47.5969 104.428 49.0001Z" fill="#E47450"/>
<path d="M132.811 49.0001C132.811 50.4033 131.671 51.5408 130.264 51.5408C128.858 51.5408 127.717 50.4033 127.717 49.0001C127.717 47.5969 128.858 46.4594 130.264 46.4594C131.671 46.4594 132.811 47.5969 132.811 49.0001Z" fill="#E47450"/>
<path d="M19.2842 95.4593C19.2842 96.8625 18.1439 98 16.7372 98C15.3305 98 14.1901 96.8625 14.1901 95.4593C14.1901 94.056 15.3305 92.9185 16.7372 92.9185C18.1439 92.9185 19.2842 94.056 19.2842 95.4593Z" fill="#E47450"/>
<path d="M47.666 95.4593C47.666 96.8625 46.5257 98 45.119 98C43.7123 98 42.5719 96.8625 42.5719 95.4593C42.5719 94.056 43.7123 92.9185 45.119 92.9185C46.5257 92.9185 47.666 94.056 47.666 95.4593Z" fill="#E47450"/>
<path d="M76.0478 95.4593C76.0478 96.8625 74.9075 98 73.5008 98C72.0941 98 70.9537 96.8625 70.9537 95.4593C70.9537 94.056 72.0941 92.9185 73.5008 92.9185C74.9075 92.9185 76.0478 94.056 76.0478 95.4593Z" fill="#E47450"/>
<path d="M104.428 95.4593C104.428 96.8625 103.288 98 101.881 98C100.474 98 99.334 96.8625 99.334 95.4593C99.334 94.056 100.474 92.9185 101.881 92.9185C103.288 92.9185 104.428 94.056 104.428 95.4593Z" fill="#E47450"/>
<path d="M132.811 95.4593C132.811 96.8625 131.671 98 130.264 98C128.858 98 127.717 96.8625 127.717 95.4593C127.717 94.056 128.858 92.9185 130.264 92.9185C131.671 92.9185 132.811 94.056 132.811 95.4593Z" fill="#E47450"/>
<path d="M5.09411 25.7702C5.09411 27.1734 3.95375 28.311 2.54705 28.311C1.14035 28.311 0 27.1734 0 25.7702C0 24.367 1.14035 23.2295 2.54705 23.2295C3.95375 23.2295 5.09411 24.367 5.09411 25.7702Z" fill="#E47450"/>
<path d="M33.4759 25.7702C33.4759 27.1734 32.3355 28.311 30.9288 28.311C29.5221 28.311 28.3818 27.1734 28.3818 25.7702C28.3818 24.367 29.5221 23.2295 30.9288 23.2295C32.3355 23.2295 33.4759 24.367 33.4759 25.7702Z" fill="#E47450"/>
<path d="M61.8562 25.7702C61.8562 27.1734 60.7158 28.311 59.3091 28.311C57.9024 28.311 56.7621 27.1734 56.7621 25.7702C56.7621 24.367 57.9024 23.2295 59.3091 23.2295C60.7158 23.2295 61.8562 24.367 61.8562 25.7702Z" fill="#E47450"/>
<path d="M90.2395 25.7702C90.2395 27.1734 89.0991 28.311 87.6924 28.311C86.2857 28.311 85.1454 27.1734 85.1454 25.7702C85.1454 24.367 86.2857 23.2295 87.6924 23.2295C89.0991 23.2295 90.2395 24.367 90.2395 25.7702Z" fill="#E47450"/>
<path d="M118.62 25.7702C118.62 27.1734 117.479 28.311 116.073 28.311C114.666 28.311 113.526 27.1734 113.526 25.7702C113.526 24.367 114.666 23.2295 116.073 23.2295C117.479 23.2295 118.62 24.367 118.62 25.7702Z" fill="#E47450"/>
<path d="M147 25.7702C147 27.1734 145.86 28.311 144.453 28.311C143.046 28.311 141.906 27.1734 141.906 25.7702C141.906 24.367 143.046 23.2295 144.453 23.2295C145.86 23.2295 147 24.367 147 25.7702Z" fill="#E47450"/>
<path d="M5.09411 72.2296C5.09411 73.6328 3.95375 74.7703 2.54705 74.7703C1.14035 74.7703 0 73.6328 0 72.2296C0 70.8264 1.14035 69.6888 2.54705 69.6888C3.95375 69.6888 5.09411 70.8264 5.09411 72.2296Z" fill="#E47450"/>
<path d="M33.4759 72.2296C33.4759 73.6328 32.3355 74.7703 30.9288 74.7703C29.5221 74.7703 28.3818 73.6328 28.3818 72.2296C28.3818 70.8264 29.5221 69.6888 30.9288 69.6888C32.3355 69.6888 33.4759 70.8264 33.4759 72.2296Z" fill="#E47450"/>
<path d="M61.8562 72.2296C61.8562 73.6328 60.7158 74.7703 59.3091 74.7703C57.9024 74.7703 56.7621 73.6328 56.7621 72.2296C56.7621 70.8264 57.9024 69.6888 59.3091 69.6888C60.7158 69.6888 61.8562 70.8264 61.8562 72.2296Z" fill="#E47450"/>
<path d="M90.2395 72.2296C90.2395 73.6328 89.0991 74.7703 87.6924 74.7703C86.2857 74.7703 85.1454 73.6328 85.1454 72.2296C85.1454 70.8264 86.2857 69.6888 87.6924 69.6888C89.0991 69.6888 90.2395 70.8264 90.2395 72.2296Z" fill="#E47450"/>
<path d="M118.62 72.2296C118.62 73.6328 117.479 74.7703 116.073 74.7703C114.666 74.7703 113.526 73.6328 113.526 72.2296C113.526 70.8264 114.666 69.6888 116.073 69.6888C117.479 69.6888 118.62 70.8264 118.62 72.2296Z" fill="#E47450"/>
<path d="M147 72.2296C147 73.6328 145.86 74.7703 144.453 74.7703C143.046 74.7703 141.906 73.6328 141.906 72.2296C141.906 70.8264 143.046 69.6888 144.453 69.6888C145.86 69.6888 147 70.8264 147 72.2296Z" fill="#E47450"/>
</svg>
