<svg width="152" height="148" viewBox="0 0 152 148" fill="none" xmlns="http://www.w3.org/2000/svg">
<path d="M19.9402 49.8896C19.9402 51.3318 18.761 52.5009 17.3065 52.5009C15.8519 52.5009 14.6728 51.3318 14.6728 49.8896C14.6728 48.4475 15.8519 47.2784 17.3065 47.2784C18.761 47.2784 19.9402 48.4475 19.9402 49.8896Z" fill="#45B1F3"/>
<path d="M49.2873 49.8896C49.2873 51.3318 48.1082 52.5009 46.6536 52.5009C45.1991 52.5009 44.0199 51.3318 44.0199 49.8896C44.0199 48.4475 45.1991 47.2784 46.6536 47.2784C48.1082 47.2784 49.2873 48.4475 49.2873 49.8896Z" fill="#45B1F3"/>
<path d="M78.6345 49.8896C78.6345 51.3318 77.4553 52.5009 76.0008 52.5009C74.5462 52.5009 73.3671 51.3318 73.3671 49.8896C73.3671 48.4475 74.5462 47.2784 76.0008 47.2784C77.4553 47.2784 78.6345 48.4475 78.6345 49.8896Z" fill="#45B1F3"/>
<path d="M107.98 49.8896C107.98 51.3318 106.801 52.5009 105.346 52.5009C103.892 52.5009 102.713 51.3318 102.713 49.8896C102.713 48.4475 103.892 47.2784 105.346 47.2784C106.801 47.2784 107.98 48.4475 107.98 49.8896Z" fill="#45B1F3"/>
<path d="M137.329 49.8896C137.329 51.3318 136.15 52.5009 134.695 52.5009C133.241 52.5009 132.061 51.3318 132.061 49.8896C132.061 48.4475 133.241 47.2784 134.695 47.2784C136.15 47.2784 137.329 48.4475 137.329 49.8896Z" fill="#45B1F3"/>
<path d="M19.9402 97.6392C19.9402 99.0814 18.761 100.251 17.3065 100.251C15.8519 100.251 14.6728 99.0814 14.6728 97.6392C14.6728 96.197 15.8519 95.0279 17.3065 95.0279C18.761 95.0279 19.9402 96.197 19.9402 97.6392Z" fill="#45B1F3"/>
<path d="M49.2873 97.6392C49.2873 99.0814 48.1082 100.251 46.6536 100.251C45.1991 100.251 44.0199 99.0814 44.0199 97.6392C44.0199 96.197 45.1991 95.0279 46.6536 95.0279C48.1082 95.0279 49.2873 96.197 49.2873 97.6392Z" fill="#45B1F3"/>
<path d="M78.6345 97.6392C78.6345 99.0814 77.4553 100.251 76.0008 100.251C74.5462 100.251 73.3671 99.0814 73.3671 97.6392C73.3671 96.197 74.5462 95.0279 76.0008 95.0279C77.4553 95.0279 78.6345 96.197 78.6345 97.6392Z" fill="#45B1F3"/>
<path d="M107.98 97.6392C107.98 99.0814 106.801 100.251 105.346 100.251C103.892 100.251 102.713 99.0814 102.713 97.6392C102.713 96.197 103.892 95.0279 105.346 95.0279C106.801 95.0279 107.98 96.197 107.98 97.6392Z" fill="#45B1F3"/>
<path d="M137.329 97.6392C137.329 99.0814 136.15 100.251 134.695 100.251C133.241 100.251 132.061 99.0814 132.061 97.6392C132.061 96.197 133.241 95.0279 134.695 95.0279C136.15 95.0279 137.329 96.197 137.329 97.6392Z" fill="#45B1F3"/>
<path d="M19.9402 145.389C19.9402 146.831 18.761 148 17.3065 148C15.8519 148 14.6728 146.831 14.6728 145.389C14.6728 143.946 15.8519 142.777 17.3065 142.777C18.761 142.777 19.9402 143.946 19.9402 145.389Z" fill="#45B1F3"/>
<path d="M49.2873 145.389C49.2873 146.831 48.1082 148 46.6536 148C45.1991 148 44.0199 146.831 44.0199 145.389C44.0199 143.946 45.1991 142.777 46.6536 142.777C48.1082 142.777 49.2873 143.946 49.2873 145.389Z" fill="#45B1F3"/>
<path d="M78.6345 145.389C78.6345 146.831 77.4553 148 76.0008 148C74.5462 148 73.3671 146.831 73.3671 145.389C73.3671 143.946 74.5462 142.777 76.0008 142.777C77.4553 142.777 78.6345 143.946 78.6345 145.389Z" fill="#45B1F3"/>
<path d="M107.98 145.389C107.98 146.831 106.801 148 105.346 148C103.892 148 102.713 146.831 102.713 145.389C102.713 143.946 103.892 142.777 105.346 142.777C106.801 142.777 107.98 143.946 107.98 145.389Z" fill="#45B1F3"/>
<path d="M137.329 145.389C137.329 146.831 136.15 148 134.695 148C133.241 148 132.061 146.831 132.061 145.389C132.061 143.946 133.241 142.777 134.695 142.777C136.15 142.777 137.329 143.946 137.329 145.389Z" fill="#45B1F3"/>
<path d="M5.26737 73.7642C5.26737 75.2064 4.08823 76.3755 2.63369 76.3755C1.17914 76.3755 0 75.2064 0 73.7642C0 72.3221 1.17914 71.1529 2.63369 71.1529C4.08823 71.1529 5.26737 72.3221 5.26737 73.7642Z" fill="#45B1F3"/>
<path d="M34.6145 73.7642C34.6145 75.2064 33.4354 76.3755 31.9808 76.3755C30.5263 76.3755 29.3472 75.2064 29.3472 73.7642C29.3472 72.3221 30.5263 71.1529 31.9808 71.1529C33.4354 71.1529 34.6145 72.3221 34.6145 73.7642Z" fill="#45B1F3"/>
<path d="M63.9601 73.7642C63.9601 75.2064 62.781 76.3755 61.3264 76.3755C59.8719 76.3755 58.6927 75.2064 58.6927 73.7642C58.6927 72.3221 59.8719 71.1529 61.3264 71.1529C62.781 71.1529 63.9601 72.3221 63.9601 73.7642Z" fill="#45B1F3"/>
<path d="M93.3088 73.7642C93.3088 75.2064 92.1297 76.3755 90.6751 76.3755C89.2206 76.3755 88.0415 75.2064 88.0415 73.7642C88.0415 72.3221 89.2206 71.1529 90.6751 71.1529C92.1297 71.1529 93.3088 72.3221 93.3088 73.7642Z" fill="#45B1F3"/>
<path d="M122.654 73.7642C122.654 75.2064 121.475 76.3755 120.021 76.3755C118.566 76.3755 117.387 75.2064 117.387 73.7642C117.387 72.3221 118.566 71.1529 120.021 71.1529C121.475 71.1529 122.654 72.3221 122.654 73.7642Z" fill="#45B1F3"/>
<path d="M152 73.7642C152 75.2064 150.821 76.3755 149.366 76.3755C147.912 76.3755 146.733 75.2064 146.733 73.7642C146.733 72.3221 147.912 71.1529 149.366 71.1529C150.821 71.1529 152 72.3221 152 73.7642Z" fill="#45B1F3"/>
<path d="M5.26737 121.514C5.26737 122.956 4.08823 124.125 2.63369 124.125C1.17914 124.125 0 122.956 0 121.514C0 120.072 1.17914 118.903 2.63369 118.903C4.08823 118.903 5.26737 120.072 5.26737 121.514Z" fill="#45B1F3"/>
<path d="M34.6145 121.514C34.6145 122.956 33.4354 124.125 31.9808 124.125C30.5263 124.125 29.3472 122.956 29.3472 121.514C29.3472 120.072 30.5263 118.903 31.9808 118.903C33.4354 118.903 34.6145 120.072 34.6145 121.514Z" fill="#45B1F3"/>
<path d="M63.9601 121.514C63.9601 122.956 62.781 124.125 61.3264 124.125C59.8719 124.125 58.6927 122.956 58.6927 121.514C58.6927 120.072 59.8719 118.903 61.3264 118.903C62.781 118.903 63.9601 120.072 63.9601 121.514Z" fill="#45B1F3"/>
<path d="M93.3088 121.514C93.3088 122.956 92.1297 124.125 90.6751 124.125C89.2206 124.125 88.0415 122.956 88.0415 121.514C88.0415 120.072 89.2206 118.903 90.6751 118.903C92.1297 118.903 93.3088 120.072 93.3088 121.514Z" fill="#45B1F3"/>
<path d="M122.654 121.514C122.654 122.956 121.475 124.125 120.021 124.125C118.566 124.125 117.387 122.956 117.387 121.514C117.387 120.072 118.566 118.903 120.021 118.903C121.475 118.903 122.654 120.072 122.654 121.514Z" fill="#45B1F3"/>
<path d="M152 121.514C152 122.956 150.821 124.125 149.366 124.125C147.912 124.125 146.733 122.956 146.733 121.514C146.733 120.072 147.912 118.903 149.366 118.903C150.821 118.903 152 120.072 152 121.514Z" fill="#45B1F3"/>
<path d="M19.9402 2.6113C19.9402 4.05348 18.761 5.2226 17.3065 5.2226C15.8519 5.2226 14.6728 4.05348 14.6728 2.6113C14.6728 1.16912 15.8519 0 17.3065 0C18.761 0 19.9402 1.16912 19.9402 2.6113Z" fill="#45B1F3"/>
<path d="M49.2873 2.6113C49.2873 4.05348 48.1082 5.2226 46.6536 5.2226C45.1991 5.2226 44.0199 4.05348 44.0199 2.6113C44.0199 1.16912 45.1991 0 46.6536 0C48.1082 0 49.2873 1.16912 49.2873 2.6113Z" fill="#45B1F3"/>
<path d="M78.6345 2.6113C78.6345 4.05348 77.4553 5.2226 76.0008 5.2226C74.5462 5.2226 73.3671 4.05348 73.3671 2.6113C73.3671 1.16912 74.5462 0 76.0008 0C77.4553 0 78.6345 1.16912 78.6345 2.6113Z" fill="#45B1F3"/>
<path d="M107.98 2.6113C107.98 4.05348 106.801 5.2226 105.346 5.2226C103.892 5.2226 102.713 4.05348 102.713 2.6113C102.713 1.16912 103.892 0 105.346 0C106.801 0 107.98 1.16912 107.98 2.6113Z" fill="#45B1F3"/>
<path d="M137.329 2.6113C137.329 4.05348 136.15 5.2226 134.695 5.2226C133.241 5.2226 132.061 4.05348 132.061 2.6113C132.061 1.16912 133.241 0 134.695 0C136.15 0 137.329 1.16912 137.329 2.6113Z" fill="#45B1F3"/>
<path d="M5.26737 26.4859C5.26737 27.9281 4.08823 29.0972 2.63369 29.0972C1.17914 29.0972 0 27.9281 0 26.4859C0 25.0437 1.17914 23.8746 2.63369 23.8746C4.08823 23.8746 5.26737 25.0437 5.26737 26.4859Z" fill="#45B1F3"/>
<path d="M34.6145 26.4859C34.6145 27.9281 33.4354 29.0972 31.9808 29.0972C30.5263 29.0972 29.3472 27.9281 29.3472 26.4859C29.3472 25.0437 30.5263 23.8746 31.9808 23.8746C33.4354 23.8746 34.6145 25.0437 34.6145 26.4859Z" fill="#45B1F3"/>
<path d="M63.9601 26.4859C63.9601 27.9281 62.781 29.0972 61.3264 29.0972C59.8719 29.0972 58.6927 27.9281 58.6927 26.4859C58.6927 25.0437 59.8719 23.8746 61.3264 23.8746C62.781 23.8746 63.9601 25.0437 63.9601 26.4859Z" fill="#45B1F3"/>
<path d="M93.3088 26.4859C93.3088 27.9281 92.1297 29.0972 90.6751 29.0972C89.2206 29.0972 88.0415 27.9281 88.0415 26.4859C88.0415 25.0437 89.2206 23.8746 90.6751 23.8746C92.1297 23.8746 93.3088 25.0437 93.3088 26.4859Z" fill="#45B1F3"/>
<path d="M122.654 26.4859C122.654 27.9281 121.475 29.0972 120.021 29.0972C118.566 29.0972 117.387 27.9281 117.387 26.4859C117.387 25.0437 118.566 23.8746 120.021 23.8746C121.475 23.8746 122.654 25.0437 122.654 26.4859Z" fill="#45B1F3"/>
<path d="M152 26.4859C152 27.9281 150.821 29.0972 149.366 29.0972C147.912 29.0972 146.733 27.9281 146.733 26.4859C146.733 25.0437 147.912 23.8746 149.366 23.8746C150.821 23.8746 152 25.0437 152 26.4859Z" fill="#45B1F3"/>
</svg>
