<svg width="21" height="22" viewBox="0 0 21 22" fill="none" xmlns="http://www.w3.org/2000/svg">
<path fill-rule="evenodd" clip-rule="evenodd" d="M0 1.4C0 0.902944 0.402944 0.5 0.9 0.5H5.7C6.12901 0.5 6.49839 0.802814 6.58252 1.2235L7.78252 7.2235C7.84154 7.51857 7.74918 7.82362 7.5364 8.0364L4.10352 11.4693C4.8022 12.7445 5.65071 13.8779 6.6364 14.8636C7.62209 15.8493 8.75554 16.6978 10.0307 17.3965L13.4636 13.9636C13.6764 13.7508 13.9814 13.6585 14.2765 13.7175L20.2765 14.9175C20.6972 15.0016 21 15.371 21 15.8V20.6C21 21.0971 20.5971 21.5 20.1 21.5C13.9195 21.5 8.86953 19.6423 5.3636 16.1364C1.85767 12.6305 0 7.58046 0 1.4ZM11.7576 18.2152C13.9139 19.0912 16.4021 19.597 19.2 19.6858V16.5378L14.3958 15.577L11.7576 18.2152ZM3.2848 9.74241L5.92302 7.10419L4.96218 2.3H1.81416C1.90304 5.09788 2.40876 7.58608 3.2848 9.74241Z" fill="#F36B32"/>
</svg>
